<?xml version="1.0" encoding="utf-8"?>
<!-- Generator: Adobe Illustrator 19.1.0, SVG Export Plug-In . SVG Version: 6.00 Build 0)  -->
<svg version="1.1" id="Layer_1" xmlns="http://www.w3.org/2000/svg" xmlns:xlink="http://www.w3.org/1999/xlink" x="0px" y="0px"
	 viewBox="0 0 150 150" enable-background="new 0 0 150 150" xml:space="preserve">
<g id="dividendgrowers">
	<circle id="Background_33_" fill="#3063AF" cx="75" cy="75" r="75"/>
	<g id="Shadow_33_">
		<defs>
			<circle id="SVGID_53_" cx="75" cy="75" r="75"/>
		</defs>
		<clipPath id="SVGID_2_">
			<use xlink:href="#SVGID_53_"  overflow="visible"/>
		</clipPath>
		<polygon clip-path="url(#SVGID_2_)" fill="#1B54A5" points="150,83 107.3,40.3 90.6,57 65.3,31.7 37.9,102.1 85.7,150 150,150 		
			"/>
	</g>
	<g id="Object_33_">
		<path fill="#079D85" d="M73.7,77.6l19.5,39.8c0.6-0.2,1.1-0.4,1.7-0.6c16.3-6.7,27.1-21.1,29.2-38.9L73.7,77.6z"/>
		<path fill="#FFC81A" d="M74,25.8c-0.8,0-1.5,0-2.3,0.1v45.3h45.4c0.2-1.6,0.3-3.2,0.3-4.8C117.6,44,98.1,25.8,74,25.8z"/>
		<path fill="#E4524E" d="M65.3,78V31.7c-22,1.1-39.4,19.1-39.4,41.4c0,22.8,18.6,41.4,41.5,41.4c7.1,0,9.6,0.2,15.4-3L65.3,78z"/>
	</g>
</g>
</svg>
